# Blender v3.5.0 OBJ File: 'player.blend'
# www.blender.org
mtllib player.mtl
o 立方体.002
v 0.558735 1.454503 -1.352159
v 0.430467 0.756271 -1.380241
v 1.376100 0.129227 -1.417518
v 0.590086 -0.030432 -1.384538
v 0.525559 1.452153 -2.154213
v 0.397291 0.753921 -2.182295
v 1.342924 0.126877 -2.219573
v 0.556910 -0.032782 -2.186593
v -0.454730 2.585356 -2.091872
v -0.454730 1.782612 -2.091872
v 0.348012 2.585356 -2.090471
v 0.348012 1.782612 -2.090471
v -0.456131 2.585356 -1.289129
v -0.456131 1.782612 -1.289129
v 0.346611 2.585356 -1.287728
v 0.346611 1.782612 -1.287728
v -0.070150 -0.167164 -1.333992
v -0.464852 1.473378 -1.327792
v -0.082758 -0.167164 -2.136637
v -0.477461 1.473378 -2.130437
v 0.219851 1.010796 -1.338548
v 0.337793 1.473378 -1.340401
v 0.207242 1.010796 -2.141193
v 0.325184 1.473378 -2.143046
v -0.662680 1.409355 -2.116030
v -0.651244 0.699703 -2.083895
v -1.686377 0.238617 -2.015385
v -0.938921 -0.049535 -2.067108
v -0.608378 1.406450 -1.315130
v -0.596942 0.696798 -1.282995
v -1.632076 0.235712 -1.214485
v -0.884620 -0.052440 -1.266208
vt 0.765398 0.813501
vt 0.690404 0.730323
vt 0.646668 0.611574
vt 0.765398 0.567788
vt 0.922515 0.486624
vt 0.922515 0.613198
vt 0.795942 0.613198
vt 0.795942 0.486624
vt 0.765398 0.260986
vt 0.646668 0.217199
vt 0.690404 0.098451
vt 0.765398 0.015272
vt 0.489586 0.249502
vt 0.486624 0.139530
vt 0.613162 0.142547
vt 0.616124 0.252519
vt 0.172389 0.314749
vt 0.298930 0.311873
vt 0.298930 0.557601
vt 0.172389 0.560476
vt 0.489586 0.015272
vt 0.616124 0.018288
vt 0.000000 0.000000
vt 0.000000 0.000000
vt 0.000000 0.000000
vt 0.000000 0.000000
vt 0.000000 0.000000
vt 0.000000 0.000000
vt 0.000000 0.000000
vt 0.000000 0.000000
vt 0.298963 0.015272
vt 0.298963 0.281329
vt 0.172389 0.281329
vt 0.172389 0.015272
vt 0.393837 0.304490
vt 0.456080 0.563164
vt 0.329507 0.563164
vt 0.348106 0.490226
vt 0.141845 0.206554
vt 0.141845 0.281825
vt 0.015272 0.281825
vt 0.015272 0.206554
vt 0.437481 0.201008
vt 0.456080 0.273946
vt 0.329507 0.273946
vt 0.391749 0.015272
vt 0.141845 0.015272
vt 0.015272 0.015272
vt 0.456080 0.593708
vt 0.456080 0.720282
vt 0.329507 0.720282
vt 0.329507 0.593708
vt 0.605354 0.796567
vt 0.530361 0.713388
vt 0.486624 0.594640
vt 0.605354 0.550853
vt 0.298963 0.748137
vt 0.298963 0.874711
vt 0.172389 0.874711
vt 0.172389 0.748137
vt 0.765398 0.537244
vt 0.646668 0.493457
vt 0.690404 0.374708
vt 0.765398 0.291530
vt 0.489586 0.517293
vt 0.486624 0.407321
vt 0.613162 0.410337
vt 0.616124 0.520309
vt 0.015272 0.315244
vt 0.141813 0.312369
vt 0.141813 0.558097
vt 0.015272 0.560972
vt 0.489586 0.283062
vt 0.616124 0.286079
vn 0.0253 -0.0213 0.9995
vn 0.1988 -0.9800 -0.0054
vn -0.0253 0.0213 -0.9995
vn -0.9830 0.1790 0.0401
vn 0.8498 0.5259 -0.0367
vn -0.9792 -0.1989 0.0411
vn -0.0000 1.0000 0.0000
vn 1.0000 0.0000 0.0017
vn -0.0017 0.0000 1.0000
vn 0.0000 -1.0000 0.0000
vn 0.0017 0.0000 -1.0000
vn -1.0000 0.0000 -0.0017
vn -0.9721 -0.2339 0.0153
vn -0.0157 0.0000 -0.9999
vn 0.9689 -0.2471 -0.0152
vn 0.0157 -0.0000 0.9999
vn 0.9709 -0.2391 -0.0153
vn -0.0559 -0.0229 -0.9982
vn -0.3584 -0.9333 0.0209
vn 0.0559 0.0229 0.9982
vn 0.9976 0.0130 -0.0676
vn -0.7495 0.6599 0.0532
vn 0.9311 -0.3590 -0.0644
usemtl マテリアル.003
s off
f 1/1/1 2/2/1 4/3/1 3/4/1
f 3/5/2 4/6/2 8/7/2 7/8/2
f 7/9/3 8/10/3 6/11/3 5/12/3
f 5/13/4 6/14/4 2/15/4 1/16/4
f 3/17/5 7/18/5 5/19/5 1/20/5
f 8/21/6 4/22/6 2/15/6 6/14/6
usemtl Material
f 9/23/7 13/24/7 15/25/7 11/26/7
f 12/27/8 11/26/8 15/25/8 16/28/8
f 16/28/9 15/25/9 13/24/9 14/29/9
f 14/29/10 10/30/10 12/27/10 16/28/10
f 10/30/11 9/23/11 11/26/11 12/27/11
f 14/29/12 13/24/12 9/23/12 10/30/12
usemtl マテリアル
f 17/31/13 18/32/13 20/33/13 19/34/13
f 19/35/14 20/36/14 24/37/14 23/38/14
f 23/39/15 24/40/15 22/41/15 21/42/15
f 21/43/16 22/44/16 18/45/16 17/46/16
f 19/47/17 23/39/17 21/42/17 17/48/17
f 24/49/7 20/50/7 18/51/7 22/52/7
usemtl マテリアル.002
f 25/53/18 26/54/18 28/55/18 27/56/18
f 27/57/19 28/58/19 32/59/19 31/60/19
f 31/61/20 32/62/20 30/63/20 29/64/20
f 29/65/21 30/66/21 26/67/21 25/68/21
f 27/69/22 31/70/22 29/71/22 25/72/22
f 32/73/23 28/74/23 26/67/23 30/66/23
